<svg width="24" height="24" viewBox="0 0 24 24" fill="none" xmlns="http://www.w3.org/2000/svg">
<path d="M12 2.163C15.204 2.163 15.584 2.175 16.85 2.233C20.102 2.381 21.621 3.924 21.769 7.152C21.827 8.417 21.838 8.797 21.838 12.001C21.838 15.206 21.826 15.585 21.769 16.85C21.62 20.075 20.105 21.621 16.85 21.769C15.584 21.827 15.206 21.839 12 21.839C8.796 21.839 8.416 21.827 7.151 21.769C3.891 21.62 2.38 20.07 2.232 16.849C2.174 15.584 2.162 15.205 2.162 12C2.162 8.796 2.175 8.417 2.232 7.151C2.381 3.924 3.896 2.38 7.151 2.232C8.417 2.175 8.796 2.163 12 2.163V2.163ZM12 0C8.741 0 8.333 0.014 7.053 0.072C2.695 0.272 0.273 2.69 0.073 7.052C0.014 8.333 0 8.741 0 12C0 15.259 0.014 15.668 0.072 16.948C0.272 21.306 2.69 23.728 7.052 23.928C8.333 23.986 8.741 24 12 24C15.259 24 15.668 23.986 16.948 23.928C21.302 23.728 23.73 21.31 23.927 16.948C23.986 15.668 24 15.259 24 12C24 8.741 23.986 8.333 23.928 7.053C23.732 2.699 21.311 0.273 16.949 0.073C15.668 0.014 15.259 0 12 0ZM12 5.838C11.1908 5.838 10.3895 5.99739 9.6419 6.30705C8.8943 6.61672 8.215 7.07061 7.64281 7.64281C7.07061 8.215 6.61672 8.8943 6.30705 9.6419C5.99738 10.3895 5.838 11.1908 5.838 12C5.838 12.8092 5.99738 13.6105 6.30705 14.3581C6.61672 15.1057 7.07061 15.785 7.64281 16.3572C8.215 16.9294 8.8943 17.3833 9.6419 17.6929C10.3895 18.0026 11.1908 18.162 12 18.162C13.6343 18.162 15.2016 17.5128 16.3572 16.3572C17.5128 15.2016 18.162 13.6343 18.162 12C18.162 10.3657 17.5128 8.79841 16.3572 7.64281C15.2016 6.48721 13.6343 5.838 12 5.838V5.838ZM12 16C10.9391 16 9.92172 15.5786 9.17157 14.8284C8.42143 14.0783 8 13.0609 8 12C8 10.9391 8.42143 9.92172 9.17157 9.17157C9.92172 8.42143 10.9391 8 12 8C13.0609 8 14.0783 8.42143 14.8284 9.17157C15.5786 9.92172 16 10.9391 16 12C16 13.0609 15.5786 14.0783 14.8284 14.8284C14.0783 15.5786 13.0609 16 12 16ZM18.406 4.155C18.2168 4.155 18.0295 4.19226 17.8547 4.26465C17.68 4.33704 17.5212 4.44315 17.3874 4.57691C17.2537 4.71068 17.1475 4.86947 17.0752 5.04424C17.0028 5.21901 16.9655 5.40633 16.9655 5.5955C16.9655 5.78467 17.0028 5.97199 17.0752 6.14676C17.1475 6.32153 17.2537 6.48032 17.3874 6.61409C17.5212 6.74785 17.68 6.85396 17.8547 6.92635C18.0295 6.99874 18.2168 7.036 18.406 7.036C18.788 7.036 19.1544 6.88423 19.4246 6.61409C19.6947 6.34394 19.8465 5.97754 19.8465 5.5955C19.8465 5.21346 19.6947 4.84706 19.4246 4.57691C19.1544 4.30677 18.788 4.155 18.406 4.155V4.155Z" fill="#FB6087"/>
</svg>
